<?xml version="1.0" standalone="no"?>
<!DOCTYPE svg PUBLIC "-//W3C//DTD SVG 20010904//EN"
 "http://www.w3.org/TR/2001/REC-SVG-20010904/DTD/svg10.dtd">
<svg version="1.0" xmlns="http://www.w3.org/2000/svg"
 width="384.000000pt" height="384.000000pt" viewBox="0 0 384.000000 384.000000"
 preserveAspectRatio="xMidYMid meet">
<metadata>
Created by potrace 1.10, written by Peter Selinger 2001-2011
</metadata>
<g transform="translate(0.000000,384.000000) scale(0.100000,-0.100000)"
fill="#ffffff" stroke="none">
<path d="M615 3339 l-35 -31 0 -118 c0 -128 3 -135 61 -165 l29 -15 2 -736 3
-736 32 -28 c18 -16 49 -34 70 -39 52 -15 2213 -15 2265 -1 53 15 94 54 105
97 7 29 18 43 53 63 37 22 45 31 45 56 0 22 -7 33 -30 44 -54 28 -57 30 -44
46 6 8 22 14 35 14 26 0 47 30 42 63 -2 14 -18 28 -46 42 -45 22 -50 38 -11
43 79 12 77 97 -3 117 -32 8 -38 35 -9 35 11 0 32 11 48 24 24 21 26 27 18 52
-7 20 -21 32 -45 40 -47 16 -47 26 2 49 68 31 60 94 -13 109 -37 7 -37 20 0
36 16 6 37 21 47 31 26 29 9 70 -34 81 -43 11 -44 44 -1 53 32 7 56 43 46 69
-3 8 -24 24 -47 36 -48 24 -51 38 -11 46 73 15 79 80 11 110 -45 20 -47 34 -6
45 31 9 55 35 56 61 0 20 -46 58 -71 58 -30 0 -22 26 11 40 52 22 60 43 60
163 l0 109 -34 34 -34 34 -1266 0 -1265 0 -36 -31z m1233 -1036 l-3 -718 -516
-3 c-443 -2 -518 0 -529 12 -8 11 -11 73 -11 217 l0 203 52 52 c36 36 50 58
49 75 -4 39 -1 42 24 25 19 -12 56 -16 169 -17 134 -2 148 0 180 20 20 12 46
39 59 59 21 34 23 49 23 172 0 157 -8 177 -86 228 -47 31 -50 32 -169 32 -141
0 -181 -14 -230 -82 -29 -40 -30 -43 -30 -164 0 -68 -4 -125 -9 -129 -5 -3
-17 5 -25 17 -14 20 -16 62 -10 358 3 184 7 341 10 348 3 9 117 12 529 12
l525 0 -2 -717z m1180 700 c3 -10 -106 -13 -522 -13 -288 0 -527 4 -530 9 -3
4 -3 11 1 15 4 3 240 5 526 4 406 -2 521 -6 525 -15z m-2 -144 c3 -6 0 -15 -7
-20 -8 -5 -138 -9 -289 -8 l-275 1 -6 -48 c-3 -27 -4 -52 -2 -56 2 -5 132 -8
288 -8 278 0 315 -4 287 -32 -6 -6 -122 -9 -311 -8 -264 1 -304 -1 -326 -16
-14 -9 -25 -22 -25 -29 0 -8 -7 -21 -16 -30 -13 -12 -14 -19 -4 -30 11 -13 65
-15 346 -15 327 0 334 0 334 -20 0 -11 -6 -20 -12 -20 -7 0 -161 -1 -343 -3
l-330 -2 0 -55 0 -55 339 -3 c253 -2 342 -5 347 -14 5 -7 3 -16 -4 -20 -7 -4
-164 -8 -349 -8 l-338 0 0 -44 c0 -77 -4 -77 369 -76 178 1 325 -1 328 -4 22
-22 -30 -26 -332 -26 -218 0 -326 -3 -330 -11 -4 -5 0 -18 9 -28 9 -10 16 -21
16 -26 0 -5 10 -19 22 -32 l21 -23 299 0 c258 0 298 -2 298 -15 0 -13 -37 -15
-275 -15 -188 0 -275 -3 -275 -11 0 -20 21 -49 36 -49 8 0 17 -7 20 -15 4 -8
12 -15 19 -15 7 0 15 -7 19 -15 4 -13 39 -15 225 -15 151 0 222 -4 227 -11 13
-22 -21 -27 -156 -24 -140 4 -188 -5 -137 -24 15 -6 27 -15 27 -21 0 -6 26
-10 61 -10 46 0 67 5 86 20 41 32 67 24 78 -25 6 -27 5 -28 -8 -12 -16 19 -73
24 -79 6 -6 -19 -93 -23 -129 -5 -17 9 -39 16 -46 16 -8 0 -27 6 -41 14 -15 8
-34 17 -42 21 -88 36 -280 213 -280 258 0 8 -7 20 -15 27 -8 7 -15 20 -15 30
0 10 -7 34 -15 55 -13 29 -15 67 -12 183 4 170 13 203 79 275 23 26 43 52 42
57 -1 6 -2 17 -2 25 -1 8 -10 15 -21 15 -10 0 -24 -7 -31 -15 -7 -8 -17 -15
-23 -15 -18 0 -158 -150 -169 -181 -5 -16 -14 -29 -19 -29 -5 0 -9 -7 -9 -16
0 -9 -6 -28 -14 -42 -15 -29 -34 -102 -46 -172 -10 -59 12 -189 45 -265 7 -16
16 -37 19 -45 25 -64 154 -197 223 -231 24 -11 45 -25 49 -30 3 -5 15 -9 27
-9 13 0 34 -8 47 -17 21 -15 49 -18 175 -18 126 0 154 3 175 18 13 9 33 17 43
17 10 0 30 9 44 20 31 24 56 25 78 4 21 -21 1 -48 -29 -40 -22 6 -81 -8 -133
-30 -43 -19 -317 -19 -354 0 -48 25 -103 29 -306 27 -183 -3 -203 -1 -209 14
-12 30 17 36 168 33 104 -2 151 1 159 9 10 10 8 14 -7 19 -10 4 -36 25 -58 46
l-38 38 -108 0 c-78 0 -111 4 -119 13 -18 22 -2 27 90 27 48 0 90 3 92 8 2 4
-4 21 -14 37 -11 17 -22 38 -25 48 -7 19 -27 26 -97 29 -66 4 -64 22 3 28 53
5 55 6 58 37 5 49 -22 81 -69 85 -49 4 -52 22 -5 26 45 4 58 21 54 74 -3 42
-4 43 -43 48 -53 7 -55 34 -4 38 43 4 66 25 70 67 5 45 -7 55 -62 55 -42 0
-49 3 -49 20 0 18 7 20 67 20 65 0 103 16 103 43 0 6 7 18 16 28 9 10 14 25
11 34 -5 12 -25 15 -102 15 -87 0 -96 2 -93 18 3 15 18 17 126 19 l122 2 60
52 c33 29 58 55 54 58 -3 3 -82 4 -175 2 -123 -2 -173 0 -184 9 -8 7 -12 16
-9 21 8 14 1041 12 1050 -2z m-1799 -313 c28 -24 28 -25 28 -145 0 -112 -2
-122 -23 -143 -21 -21 -31 -23 -141 -23 -113 0 -121 1 -145 24 -25 24 -26 29
-26 142 l0 117 31 26 c29 24 37 26 139 26 101 0 111 -2 137 -24z m1027 -324
c9 -17 16 -40 16 -51 0 -11 4 -22 9 -25 5 -4 19 -27 31 -52 25 -51 164 -196
210 -217 8 -4 29 -16 45 -27 30 -20 43 -26 70 -35 8 -2 15 -9 15 -15 0 -15
-69 -12 -125 6 -69 23 -67 22 -100 44 -16 11 -39 24 -50 29 -39 18 -165 166
-165 193 0 8 -5 19 -12 26 -12 12 -26 76 -35 166 -7 72 13 188 41 236 l21 35
7 -141 c4 -99 11 -151 22 -172z m-1394 -3 c12 -16 21 -31 19 -33 -17 -10 -91
-22 -95 -14 -9 14 25 78 41 78 7 0 23 -14 35 -31z m2160 -604 c6 -8 9 -19 5
-25 -8 -13 -1041 -14 -1050 -1 -3 5 2 17 11 25 14 14 73 16 518 16 429 0 505
-2 516 -15z"/>
<path d="M1236 2785 c-27 -41 -30 -78 -9 -104 l19 -23 27 23 c36 32 50 80 30
108 -19 28 -47 26 -67 -4z"/>
<path d="M1387 2731 c-42 -43 -77 -83 -77 -88 0 -16 35 -43 56 -43 30 0 154
130 154 161 0 29 -17 49 -40 49 -9 0 -51 -35 -93 -79z"/>
<path d="M1466 2595 c-75 -30 -87 -46 -66 -86 12 -22 31 -24 80 -6 84 29 110
66 72 100 -23 21 -15 21 -86 -8z"/>
<path d="M1416 2437 c-12 -9 -17 -23 -14 -42 l3 -30 189 -3 c197 -3 205 -1
206 40 0 9 -7 24 -16 32 -13 13 -44 16 -183 16 -121 0 -172 -4 -185 -13z"/>
<path d="M1406 2281 c-29 -32 -14 -63 43 -88 27 -13 58 -23 69 -23 22 0 52 24
52 41 0 16 -42 50 -80 64 -19 7 -42 15 -51 19 -9 4 -22 -1 -33 -13z"/>
<path d="M1322 2168 c-28 -28 -10 -55 111 -176 120 -120 148 -137 175 -110 27
27 9 54 -110 175 -121 122 -148 139 -176 111z"/>
<path d="M938 2098 c-22 -19 -58 -111 -52 -135 6 -23 36 -35 61 -26 15 6 63
105 63 131 0 16 -28 41 -46 42 -5 0 -17 -6 -26 -12z"/>
<path d="M1208 2096 c-24 -18 -23 -33 6 -98 26 -58 41 -70 74 -61 30 7 33 41
10 97 -30 73 -54 89 -90 62z"/>
<path d="M1066 2078 c-13 -18 -16 -53 -16 -175 0 -176 6 -203 49 -203 17 0 31
6 35 16 12 31 7 359 -6 372 -19 19 -45 14 -62 -10z"/>
<path d="M2180 2315 c-7 -18 -7 -33 1 -46 14 -27 29 -14 29 26 0 43 -17 54
-30 20z"/>
<path d="M2214 2203 c-17 -6 -5 -85 15 -100 38 -29 56 1 26 41 -8 11 -15 28
-15 37 0 20 -10 28 -26 22z"/>
<path d="M2270 2038 c1 -29 64 -98 90 -98 26 0 25 14 -2 46 -71 81 -88 92 -88
52z"/>
<path d="M2427 1904 c-12 -12 -8 -24 8 -24 8 0 15 -7 15 -15 0 -17 25 -20 35
-5 3 6 -2 13 -12 17 -10 4 -23 13 -28 20 -6 8 -14 11 -18 7z"/>
<path d="M2840 1311 c-85 -18 -152 -82 -189 -177 -17 -46 -21 -77 -21 -183 0
-182 35 -271 130 -336 43 -29 49 -30 155 -30 102 0 113 2 151 27 52 34 96 89
120 153 27 72 27 298 0 370 -25 66 -76 128 -126 154 -46 24 -161 35 -220 22z
m151 -148 c38 -41 54 -106 54 -213 0 -106 -15 -171 -50 -214 -19 -24 -30 -28
-74 -29 -42 -1 -56 4 -77 24 -71 71 -73 352 -3 428 24 27 35 31 77 31 40 0 53
-5 73 -27z"/>
<path d="M856 1281 c-22 -41 -145 -402 -192 -561 -9 -30 -20 -68 -25 -84 -5
-17 -5 -34 -1 -38 5 -5 42 -8 83 -6 l74 3 20 70 c11 39 24 76 28 83 6 8 37 12
96 12 104 0 115 -8 131 -90 6 -29 15 -59 21 -67 13 -15 154 -19 163 -4 6 10
-13 87 -68 271 -9 30 -21 69 -26 85 -23 78 -101 299 -115 325 -15 29 -17 30
-95 30 -77 0 -80 -1 -94 -29z m110 -192 c6 -19 19 -57 28 -86 10 -28 16 -68
14 -89 l-3 -39 -53 -1 c-83 -1 -87 6 -61 101 12 44 24 91 26 105 11 62 30 66
49 9z"/>
<path d="M1330 1284 c-13 -34 -13 -407 1 -497 13 -85 42 -135 101 -174 40 -27
47 -28 167 -28 112 0 131 3 168 23 47 25 85 76 103 137 7 26 10 128 8 300 l-3
260 -54 3 c-30 2 -65 1 -78 -3 l-23 -5 0 -238 c0 -297 -10 -342 -82 -356 -57
-11 -106 3 -128 39 -19 30 -20 50 -20 293 0 295 8 272 -91 272 -55 0 -60 -2
-69 -26z"/>
<path d="M1977 1303 c-4 -3 -7 -30 -7 -60 l0 -53 94 0 c66 0 97 -4 105 -13 7
-9 12 -109 13 -298 l3 -284 75 0 75 0 3 284 c1 185 6 289 13 297 7 9 44 14
107 16 l97 3 3 37 c2 20 -2 46 -8 58 -10 19 -19 20 -289 20 -153 0 -281 -3
-284 -7z"/>
</g>
</svg>
